<?xml version="1.0" standalone="no"?>
<!DOCTYPE svg PUBLIC "-//W3C//DTD SVG 20010904//EN"
 "http://www.w3.org/TR/2001/REC-SVG-20010904/DTD/svg10.dtd">
<svg version="1.0" xmlns="http://www.w3.org/2000/svg"
 width="136.000000pt" height="140.000000pt" viewBox="0 0 136.000000 140.000000"
 preserveAspectRatio="xMidYMid meet">

<g transform="translate(0.000000,140.000000) scale(0.100000,-0.100000)"
fill="#000000" stroke="none">
<path d="M639 1344 c-11 -14 -15 -83 -17 -366 l-3 -349 -34 -31 c-82 -71 -61
-194 42 -247 28 -14 78 -14 106 0 103 53 124 176 42 248 -26 22 -35 39 -35 61
l0 30 93 0 c101 0 127 12 127 58 0 42 -25 52 -126 52 l-94 0 0 40 0 40 94 0
c102 0 126 10 126 54 0 44 -28 56 -128 56 l-92 0 0 35 0 35 88 0 c102 0 132
14 132 60 0 46 -30 60 -132 60 l-88 0 0 63 c0 79 -16 111 -56 115 -20 2 -36
-3 -45 -14z"/>
<path d="M537 1193 c-11 -11 -8 -351 3 -358 7 -4 10 58 10 179 0 102 -1 186
-3 186 -2 0 -7 -3 -10 -7z"/>
<path d="M530 786 c0 -8 5 -18 10 -21 6 -3 10 3 10 14 0 12 -4 21 -10 21 -5 0
-10 -6 -10 -14z"/>
<path d="M16 574 c-9 -8 -16 -22 -16 -29 0 -20 29 -45 52 -45 12 0 45 -19 75
-42 45 -34 64 -42 108 -46 72 -6 90 0 154 48 29 22 61 40 70 40 36 0 55 52 29
78 -27 27 -89 7 -158 -49 -49 -41 -94 -39 -153 6 -74 56 -130 70 -161 39z m97
-20 c18 -9 47 -30 65 -45 50 -44 105 -41 173 11 56 42 104 59 121 42 16 -16 3
-39 -28 -46 -15 -4 -44 -20 -63 -35 -55 -43 -75 -51 -128 -51 -48 0 -62 6
-142 65 -19 14 -44 25 -57 25 -26 0 -38 14 -30 35 7 20 49 19 89 -1z"/>
<path d="M872 578 c-26 -26 -7 -78 29 -78 9 0 41 -18 70 -40 64 -48 82 -54
154 -48 40 3 63 12 90 34 47 37 73 52 106 58 29 6 43 29 34 57 -15 45 -90 35
-165 -21 -67 -50 -109 -53 -160 -11 -69 56 -131 76 -158 49z m72 -17 c13 -6
45 -26 71 -45 62 -47 118 -50 167 -7 70 61 153 81 153 36 0 -14 -9 -21 -32
-26 -18 -3 -43 -14 -55 -23 -13 -9 -38 -28 -57 -41 -25 -19 -47 -25 -83 -25
-54 0 -74 8 -129 51 -19 15 -47 31 -62 34 -31 8 -41 20 -33 40 6 17 25 19 60
6z"/>
<path d="M16 204 c-9 -8 -16 -22 -16 -29 0 -21 29 -45 55 -45 14 0 39 -13 57
-29 58 -50 95 -64 159 -59 46 3 66 11 96 34 81 65 111 69 174 21 65 -50 83
-57 139 -57 56 0 74 7 139 57 52 39 86 42 132 8 19 -13 45 -32 58 -42 15 -10
48 -19 85 -21 56 -3 65 -1 110 30 69 47 87 56 118 63 44 9 49 67 6 81 -35 11
-86 -6 -140 -46 -71 -54 -104 -53 -175 1 -86 67 -169 64 -254 -7 -56 -47 -102
-47 -158 0 -85 71 -168 74 -256 7 -70 -53 -105 -54 -168 -6 -74 56 -130 70
-161 39z m86 -13 c13 -5 43 -25 67 -45 61 -51 108 -50 182 4 29 23 64 43 77
47 42 10 103 -5 141 -35 76 -61 126 -68 182 -27 19 13 44 32 56 41 25 18 91
29 125 21 13 -4 48 -24 77 -47 75 -56 120 -56 187 0 65 54 144 67 144 25 0
-16 -5 -19 -50 -29 -14 -3 -49 -23 -79 -46 -46 -35 -60 -40 -106 -40 -44 0
-60 6 -101 35 -95 68 -135 70 -210 9 -36 -30 -55 -38 -97 -42 -59 -4 -82 4
-151 53 -63 46 -100 46 -159 1 -65 -50 -80 -56 -136 -56 -41 0 -57 6 -94 34
-57 43 -81 56 -106 56 -23 0 -35 15 -27 35 6 17 43 19 78 6z"/>
</g>
</svg>
